# File created by Blade
# Date/Time:  Tue Apr 07 20:17:56 2015
# Frame Rate: 120.000 fps
#------------------------------------------------------
:FULLY-SPECIFIED
:DEGREES
1496
root 5.939434 35.206564 -10.667888 41.735793 -14.260108 -56.036725
Spine -13.180130 12.463971 40.814842
Head 11.929321 5.058753 27.477077
LeftShoulder -24.986232 44.501405 21.461528
LeftArm 53.592601 -59.256384 -83.871752
LeftForeArm -2.862173 -0.000000 8.575876
LeftHand 16.044967 -0.000000 13.976577
LeftHandThumb1 -26.253704 0.000000 33.147579
RightShoulder -14.576931 3.665280 -15.199108
RightArm -6.901545 56.146389 58.818376
RightForeArm 38.317502 0.000000 59.560924
RightHand 0.811330 -0.000000 -19.496246
RightHandThumb1 -24.326973 -0.000000 -32.862282
LeftUpLeg -19.218394 15.325599 49.298615
LeftLeg 13.653877 -0.000000 -0.000000
LeftFoot -9.972314 17.047816 -18.820870
LeftToeBase -8.881664 -0.000000 0.000000
RightUpLeg -50.384168 -41.222408 -52.598357
RightLeg 70.240232 -0.000000 -0.000000
RightFoot 43.110646 0.424069 -5.939151
RightToeBase 38.390971 -0.000000 -0.000000
1497
root 5.930471 35.195803 -10.671050 41.549866 -14.308443 -56.066881
Spine -12.996970 12.404274 40.882675
Head 12.152113 5.020412 27.324746
LeftShoulder -25.026050 44.540987 21.398535
LeftArm 53.664518 -59.255640 -83.938389
LeftForeArm -2.856011 -0.000000 8.636265
LeftHand 16.073982 0.000000 13.919942
LeftHandThumb1 -26.253704 0.000000 33.147579
RightShoulder -14.466426 3.671085 -15.249335
RightArm -6.771466 56.066627 58.830188
RightForeArm 38.069648 -0.000000 59.260447
RightHand 0.719638 -0.000000 -19.181242
RightHandThumb1 -24.326973 -0.000000 -32.862282
LeftUpLeg -19.052256 15.172624 49.346963
LeftLeg 13.701744 -0.000000 -0.000000
LeftFoot -10.121576 17.096608 -18.750737
LeftToeBase -8.969243 -0.000000 0.000000
RightUpLeg -50.594362 -41.370349 -52.284834
RightLeg 70.040087 -0.000000 -0.000000
RightFoot 43.123359 0.349591 -5.903046
RightToeBase 38.370337 -0.000000 -0.000000
1498
root 5.921112 35.186118 -10.676436 41.397367 -14.374095 -56.073246
Spine -12.860166 12.384211 40.883966
Head 12.376213 4.967058 27.236157
LeftShoulder -25.041295 44.563270 21.374413
LeftArm 53.697202 -59.247640 -83.959418
LeftForeArm -2.823817 -0.000000 8.721791
LeftHand 15.994442 -0.000000 13.958704
LeftHandThumb1 -26.253704 0.000000 33.147579
RightShoulder -14.352293 3.678780 -15.280472
RightArm -6.709194 56.033340 58.787188
RightForeArm 37.693014 -0.000000 58.929351
RightHand 0.500955 0.000000 -18.816684
RightHandThumb1 -24.326973 -0.000000 -32.862282
LeftUpLeg -18.898893 15.115135 49.361390
LeftLeg 13.719187 -0.000000 -0.000000
LeftFoot -10.227238 16.992638 -18.744905
LeftToeBase -9.074521 -0.000000 0.000000
RightUpLeg -50.868340 -41.541951 -51.943383
RightLeg 69.878896 -0.000000 -0.000000
RightFoot 43.098282 0.320986 -5.851105
RightToeBase 38.447730 -0.000000 -0.000000
1499
root 5.908269 35.176519 -10.681456 41.216979 -14.450854 -56.108925
Spine -12.677995 12.352338 40.900888
Head 12.600793 4.911077 27.147419
LeftShoulder -25.054819 44.582769 21.366557
LeftArm 53.676062 -59.224321 -83.909824
LeftForeArm -2.773072 -0.000000 8.772796
LeftHand 15.959067 -0.000000 13.939105
LeftHandThumb1 -26.253704 0.000000 33.147579
RightShoulder -14.207864 3.725003 -15.309424
RightArm -6.662579 56.080906 58.731302
RightForeArm 37.367722 -0.000000 58.495577
RightHand 0.237244 -0.000000 -18.251661
RightHandThumb1 -24.326973 -0.000000 -32.862282
LeftUpLeg -18.672405 14.970432 49.393189
LeftLeg 13.687913 -0.000000 -0.000000
LeftFoot -10.371363 17.115404 -18.669761
LeftToeBase -9.029758 -0.000000 0.000000
RightUpLeg -51.174736 -41.667453 -51.549180
RightLeg 69.742259 -0.000000 -0.000000
RightFoot 43.132572 0.320312 -5.781718
RightToeBase 38.424547 -0.000000 -0.000000
1500
root 5.897633 35.167993 -10.685792 41.044919 -14.523577 -56.109135
Spine -12.530309 12.339756 40.880494
Head 12.806465 4.811633 27.048349
LeftShoulder -25.028034 44.606873 21.386931
LeftArm 53.667655 -59.199279 -83.866357
LeftForeArm -2.789322 -0.000000 8.813225
LeftHand 15.855724 -0.000000 13.851861
LeftHandThumb1 -26.253704 0.000000 33.147579
RightShoulder -14.100073 3.755014 -15.304922
RightArm -6.603154 56.076851 58.668755
RightForeArm 37.180628 -0.000000 58.063220
RightHand 0.081253 -0.000000 -17.638739
RightHandThumb1 -24.326973 -0.000000 -32.862282
LeftUpLeg -18.475269 14.925381 49.370444
LeftLeg 13.627973 -0.000000 -0.000000
LeftFoot -10.404415 17.144450 -18.483221
LeftToeBase -9.016607 -0.000000 0.000000
RightUpLeg -51.467412 -41.785117 -51.178780
RightLeg 69.622288 -0.000000 -0.000000
RightFoot 43.126391 0.341901 -5.604176
RightToeBase 38.362677 -0.000000 -0.000000
1501
root 5.886862 35.161870 -10.691607 40.895038 -14.598324 -56.114948
Spine -12.389690 12.339862 40.850319
Head 12.995268 4.712167 26.951867
LeftShoulder -25.002921 44.604255 21.428983
LeftArm 53.621292 -59.167922 -83.783206
LeftForeArm -2.721077 -0.000000 8.804684
LeftHand 15.845564 -0.000000 13.777880
LeftHandThumb1 -26.253704 0.000000 33.147579
RightShoulder -14.004457 3.758481 -15.291342
RightArm -6.449966 55.969864 58.664017
RightForeArm 37.113429 -0.000000 57.477819
RightHand -0.042802 -0.000000 -17.148020
RightHandThumb1 -24.326973 -0.000000 -32.862282
LeftUpLeg -18.275794 14.905429 49.351095
LeftLeg 13.534148 -0.000000 -0.000000
LeftFoot -10.467689 17.182314 -18.413773
LeftToeBase -8.833194 -0.000000 0.000000
RightUpLeg -51.813940 -41.899607 -50.740330
RightLeg 69.523839 -0.000000 -0.000000
RightFoot 43.086928 0.357123 -5.488669
RightToeBase 38.496706 -0.000000 -0.000000
1502
root 5.878532 35.156896 -10.699203 40.736494 -14.671608 -56.074708
Spine -12.259914 12.299388 40.786758
Head 13.175899 4.603618 26.829652
LeftShoulder -24.980897 44.612398 21.450011
LeftArm 53.487346 -59.123776 -83.597474
LeftForeArm -2.716587 0.000000 8.794105
LeftHand 15.771842 0.000000 13.689476
LeftHandThumb1 -26.253704 0.000000 33.147579
RightShoulder -13.874193 3.793843 -15.273089
RightArm -6.347723 55.792842 58.613811
RightForeArm 37.099602 0.000000 56.842842
RightHand -0.209137 -0.000000 -16.629854
RightHandThumb1 -24.326973 -0.000000 -32.862282
LeftUpLeg -18.094644 14.796061 49.306235
LeftLeg 13.424000 -0.000000 -0.000000
LeftFoot -10.505740 17.246759 -18.387685
LeftToeBase -8.743017 -0.000000 0.000000
RightUpLeg -52.159333 -42.020900 -50.318249
RightLeg 69.436834 -0.000000 -0.000000
RightFoot 43.101733 0.302588 -5.328846
RightToeBase 38.430191 -0.000000 -0.000000
